<svg id="Layer_1" data-name="Layer 1" xmlns="http://www.w3.org/2000/svg" fill= "#ffeee4" viewBox="0 0 559.42 476.33"><path d="M502.85,437.7c-1.27.73-2.64,1.56-4,2.32a22.61,22.61,0,0,1-11.53,3c-7-.19-11.21-4.23-11.79-11.63-.15-1.94,0-3.89,0-5.3-3.39.5-7,.93-10.64,1.64-.88.17-1.68,1.19-2.35,1.95-2.06,2.35-3.82,5-6.1,7.1-5.67,5.24-12.54,7.09-20.12,6a16.82,16.82,0,0,1-14.09-14.26c-.16-.95-.31-1.9-.41-2.47-3.68.54-7.18,1-10.65,1.61-.73.14-1.4.95-2,1.57-2.57,2.84-4.85,6-7.68,8.55-5.17,4.63-11.53,6.05-18.28,5-7.11-1.07-11.51-5.48-13.41-12.29-3.31-11.89,2-27.48,11.7-35.06a24.85,24.85,0,0,1,19.73-4.94c7.95,1.19,13.67,7.94,13.91,16.39.11,3.72-.44,7.45-.69,11.2,4.38,1,7.91-1.07,9.32-5.36,3.57-10.89,9.84-19.33,21.69-21.94,14-3.08,24.34,5.89,23.66,20.2-.1,2.21-.46,4.41-.69,6.6,5.48,1.39,9.8-1,11.23-6.1,1-3.42,2-6.82,3.12-10.44l-2.83-.15c-3.23-.2-4.41-1.44-4.5-4.73s1.43-5.33,4.4-5.64c.36,0,.72,0,1.08,0,5-.05,5,0,6.52-4.74,1.37-4.35,2.59-8.74,4-13.07a7.54,7.54,0,0,1,11.62-3.5,4.33,4.33,0,0,1,1.45,5.28c-1.47,4.41-3,8.79-4.53,13.19-.28.83-.51,1.68-.94,3.1,2.41,0,4.51-.07,6.6,0,3.14.14,4.39,1.24,4.52,3.8.15,2.91-1.52,5.34-4.24,5.58a67.59,67.59,0,0,1-8.3.07,2.2,2.2,0,0,0-2.61,1.93c-2.12,7.57-4.42,15.09-6.58,22.66-.69,2.39-1.62,5.06.67,7s5.07.85,7.29-.39c6.87-3.82,12.39-8.7,14.66-16.85,4.83-17.39,10.12-34.65,15.28-51.95,1.44-4.84,3.91-6.36,8.77-5.74,4.11.52,5.74,3,4.51,7-3.29,10.59-6.63,21.16-9.93,31.73-.26.84-.46,1.7-.76,2.85,2.29-1.78,4.23-3.44,6.33-4.87a19.62,19.62,0,0,1,11.52-3.81c6.79.14,11.27,4.88,10.24,11.54-.77,4.92-2.34,9.71-3.68,14.53-.93,3.35-2.16,6.63-3.11,10-.63,2.22-1.46,4.72.92,6.4s4.65.85,6.82-.44a26.46,26.46,0,0,0,10.89-12.54c.88-2,1.66-4.19,4.58-3.25a4.58,4.58,0,0,1,2.64,6c-3.87,11-15.09,20.61-25.52,21.14-9.13.46-14.67-4.58-13.43-13.65.93-6.85,3.34-13.49,5.11-20.23.36-1.38.87-2.73,1.14-4.13.63-3.34-1.39-5.47-4.61-4.43a20.93,20.93,0,0,0-6.71,3.74c-5.89,4.84-9,11.45-11,18.62q-2.19,7.61-4.45,15.18c-1.36,4.54-8.86,6.48-12.2,3.07C503.56,440.53,503.38,439,502.85,437.7ZM400.32,424.31a10.67,10.67,0,0,1-2.67-10.74,27.88,27.88,0,0,1,4.25-7.95c1.41-1.94.84-3.24-.62-4.25a7.66,7.66,0,0,0-4-1.25c-3.86-.09-6.94,1.87-9.23,4.73a30.55,30.55,0,0,0-6.66,21.76,6.67,6.67,0,0,0,7.34,6.27C394.43,432.6,397.63,428.9,400.32,424.31Zm51.42-23.84c-3.8,0-6.64,1.09-8.81,3.38-5.81,6.16-8.24,13.73-8.21,22,0,4.8,3.47,7.44,8.25,7,4.95-.46,7.86-3.87,10.42-7.63.24-.35-.17-1.31-.49-1.87q-5.46-9.41,2.2-17a3,3,0,0,0-.86-5.2A11,11,0,0,0,451.74,400.47Z" transform="translate(-16.98 -33.47)"/><path d="M252.24,432.09c-.85.69-1.47,1.17-2.07,1.67a37.24,37.24,0,0,1-24.36,9.1c-8.55.14-15.44-2.69-18.75-10.71-4.51,2.67-8.8,5.54-13.38,7.82a31.74,31.74,0,0,1-15.93,2.93c-10.71-.51-16.45-5.64-18.33-16.61-4.91,2.4-9.89,2.95-14.77.55-2.88,3.31-5.52,6.68-8.52,9.71A21.42,21.42,0,0,1,122.6,443c-7.52.71-10.59-1-14.07-7.58-2.16,1.67-4.25,3.48-6.54,5a16.81,16.81,0,0,1-10.21,2.7c-6.34-.25-10.79-4.21-10.92-10.55A41.09,41.09,0,0,1,82.29,421c2.31-8.44,5-16.77,7.7-25.11,1.42-4.49,4.94-6.39,9.63-5.41,3.19.66,4.42,2.55,3.44,5.65-1.77,5.63-3.73,11.19-5.48,16.82-1.48,4.78-3,9.57-4,14.44-.32,1.48.22,3.84,1.27,4.72.89.75,3.31.43,4.65-.24,4.86-2.41,7.47-6.84,9.16-11.74,2.83-8.19,5.39-16.48,8.13-24.7,1.37-4.1,4.71-5.78,8.89-4.64,3.43.94,4.71,3,3.63,6.48-2,6.39-4.28,12.7-6.3,19.1a88.58,88.58,0,0,0-3,11.37c-.26,1.5.38,4.06,1.44,4.66,1.31.74,3.79.48,5.25-.3,5-2.7,7.88-7.38,10.33-12.33a1,1,0,0,0,.15-.51c-1.08-7.18,3.13-13.48,3.47-20.48.11-2.4,1.68-5.1,3.37-7,2-2.17,5-2.25,7.73-1A5.39,5.39,0,0,1,154.9,397c-1.11,5.58-2.66,11.08-4.1,16.59-.38,1.46-1,2.85-1.49,4.22,4.21,2.72,10.18.77,11.5-3.8a35.27,35.27,0,0,1,12.29-18.44,24,24,0,0,1,18.3-5.31c9.54,1.13,14.32,9.44,10.48,18.28-2.75,6.34-8,10.14-14.15,12.36-4.72,1.69-9.8,2.4-15,3.6-.81,4.83,1.48,8.19,6.87,8.61,8.21.63,15.17-2.55,21.43-7.63,3.24-2.64,4.94-5.89,6-10,3.21-12.06,9.83-21.54,22.76-24.63a23.18,23.18,0,0,1,10.31.22c7.12,1.68,10.56,8,8.73,15.08-2,7.67-7.28,12.5-14.36,15.15-4.11,1.54-8.66,1.92-13,2.77a17.54,17.54,0,0,1-2.6.16c-.42,5.61,2.06,8.66,7.53,9,7.36.42,13.92-2,19.76-6.34,4.92-3.68,8.62-8.22,10-14.44.88-3.9,2.14-7.71,3.26-11.68l-2.06-.11c-3.54-.17-4.71-1.16-4.76-4.07-.07-3.33,1.83-5.81,4.81-6.06,1.68-.15,3.38,0,5.31,0,1.62-5.6,3.21-11.16,4.87-16.71,1.37-4.62,3.83-6.16,8.6-5.51,4.18.57,5.85,3.26,4.46,7.28s-2.88,8.08-4.31,12.13c-.32.9-.58,1.83-1,3.12,2.49,0,4.68-.06,6.86,0,2.83.1,4.16,1.29,4.38,3.71.23,2.7-1.42,5.28-4,5.52a72.06,72.06,0,0,1-8.57.13,2.08,2.08,0,0,0-2.46,1.78c-2.23,8-4.58,16-6.84,24a11.74,11.74,0,0,0-.47,3.16c0,2.75,1.51,4.26,4.24,3.89a13.78,13.78,0,0,0,5.24-1.83,25.9,25.9,0,0,0,10.49-11.86c.85-1.95,1.58-4.29,4.57-3.23,2.26.8,3.27,3.25,2.58,6.05C289.15,431.6,275.83,442.55,266,443,258.1,443.39,254.59,440.68,252.24,432.09Zm-32.46-15.62c7.22-1.54,13.47-3.25,17.48-9.23,1.32-2,2-4.26.35-6.21s-4.16-1.58-6.18-.56C225.09,403.66,222.21,409.44,219.78,416.47Zm-46.12-.59c5.24-1.36,10-2.26,13.82-5.41a16.07,16.07,0,0,0,4.29-5.62c1.27-2.82-.36-5.19-3.44-5a12.13,12.13,0,0,0-6.13,2.09C177.69,405.18,175.45,410.05,173.66,415.88Z" transform="translate(-16.98 -33.47)"/><path d="M44.93,444.16c-8.2-.19-16-1.46-22.3-7.49a19,19,0,0,1-4.3-20.51,8.43,8.43,0,0,1,12-3.72c1.52.95,2.12,2.21,1.37,3.85-4.53,9.77,2,16.08,11.4,16.6A25.28,25.28,0,0,0,54,431.22c9.74-4.15,11.11-16.47,2.73-22.93a86.78,86.78,0,0,0-9.07-5.67c-3.23-1.9-6.57-3.63-9.81-5.52-14.21-8.28-12.07-25.82-1.72-34.23,9.79-8,27.27-8.91,38-2.14a16.37,16.37,0,0,1,7.23,17.91c-1.24,4.67-7.84,7.23-11.75,4.36a4,4,0,0,1-1.24-3.42c2.19-8.45-3.78-11.49-9.85-11.73a27.13,27.13,0,0,0-8,.65,13.58,13.58,0,0,0-5.67,3.33c-4.41,4.3-4.12,10.13.66,14A65.17,65.17,0,0,0,53.38,391c3.68,2.2,7.51,4.16,11.15,6.42C82.41,408.47,78,432.08,62.29,440.3A35.69,35.69,0,0,1,44.93,444.16Z" transform="translate(-16.98 -33.47)"/><path d="M353.38,369c-6.46.52-12.25.74-18,1.53-3.45.48-5.62,2.69-5.83,6.6-.19,3.34-3.24,5.11-7.15,4.6a5.05,5.05,0,0,1-4.74-6c.69-7.23,4.36-12.6,11-15.24a38.36,38.36,0,0,1,13-2.82c12.25-.23,24.51.32,36.77.31,6.78,0,13.57-.48,20.35-.87,1.8-.1,2.41.43,2.3,2.23-.38,6.14-2.82,9.44-9.05,10a201,201,0,0,1-22,.32c-2.52,0-3.48.58-4.21,3q-10,32.83-20.23,65.59c-1.41,4.52-9.06,6.63-12.77,3.59-1.75-1.43-1.51-3.23-.9-5.14q7.22-22.61,14.36-45.23C348.61,384.4,350.82,377.25,353.38,369Z" transform="translate(-16.98 -33.47)"/><path d="M193.71,490.55c1.07.5,1.82.81,2.52,1.18a8.62,8.62,0,0,1,5,8,8.51,8.51,0,0,1-4.94,8,13.4,13.4,0,0,1-5.34,1.59c-7.4.17-14.8.07-22.36.07V474.31c7.62,0,15.11-.29,22.55.12a7.63,7.63,0,0,1,7.23,6.23C199.35,485,197.43,488.09,193.71,490.55Zm-18.33,3.56V504c4.65,0,9.1.19,13.52-.06,3.15-.18,5-2.15,5-4.57a5.19,5.19,0,0,0-5.16-5.14C184.37,493.92,179.92,494.11,175.38,494.11Zm0-5.39c2.64,0,5,.11,7.43,0a26.84,26.84,0,0,0,6-.88c2.16-.65,2.92-2.5,2.66-4.69a3.77,3.77,0,0,0-3.73-3.56c-4.07-.2-8.15-.06-12.37-.06Z" transform="translate(-16.98 -33.47)"/><path d="M369.92,497.8v11.62h-6.53V474.07a20,20,0,0,1,2.17-.21c4.64,0,9.29-.06,13.94,0a28.61,28.61,0,0,1,4.8.39c5.22.92,8.72,4.37,9.5,9.23.91,5.59-1.15,9.87-6.06,12.56-.77.42-1.58.77-2.56,1.24L395,509.54c-2.76,0-4.87.1-7-.05a3.25,3.25,0,0,1-1.93-1.16,86.34,86.34,0,0,1-6.19-7.74c-1.47-2.19-3.13-3.2-5.75-2.82A32.5,32.5,0,0,1,369.92,497.8Zm.19-18.26V492.7c4.16-.22,8.17-.14,12.08-.73,3.18-.47,4.92-3.51,4.63-6.84a5.82,5.82,0,0,0-5.8-5.55C377.48,479.42,373.92,479.54,370.11,479.54Z" transform="translate(-16.98 -33.47)"/><path d="M342.74,488.55v5.33H324.59v9.92H345.5v5.54H317.81V474h27.33v5.25h-20.7v9.35Z" transform="translate(-16.98 -33.47)"/><path d="M269.36,509.42V474H276v17.15l.72.4c1.17-1.27,2.34-2.55,3.52-3.81,3.42-3.67,7-7.2,10.21-11,1.79-2.13,3.71-3.14,6.45-2.84a43.78,43.78,0,0,0,4.4,0l-14.48,15,16.09,20.63a61.69,61.69,0,0,1-7.54-.1c-.94-.12-1.89-1.2-2.57-2.05-3.65-4.61-7.21-9.29-10.62-13.71-6.81,3.42-6.56,9.51-6.12,15.75Z" transform="translate(-16.98 -33.47)"/><path d="M254,509.41c-.66.08-1,.13-1.36.15-6,.24-6.05.26-8.52-5.23-.74-1.66-1.6-2.46-3.58-2.4-4.74.15-9.49.1-14.23-.06-1.73-.06-2.7.48-3.12,2.12a4.24,4.24,0,0,1-.18.5c-2.25,5.82-2.25,5.82-9,4.81,1.46-3.2,2.91-6.34,4.33-9.5,3.62-8.07,7.27-16.13,10.79-24.25.65-1.5,1.51-1.73,3-1.95,4.08-.6,6.11.9,7.74,4.8,4,9.56,8.62,18.86,13,28.27C253.18,507.47,253.52,508.29,254,509.41Zm-13.48-12.79c-2.41-5.86-4.62-11.25-6.95-16.93-2.29,5.78-4.42,11.18-6.64,16.79.84.06,1.36.13,1.87.14Z" transform="translate(-16.98 -33.47)"/><path d="M419.69,509.52c0-3.58.18-7.06-.08-10.5a12.39,12.39,0,0,0-1.62-5.43c-3.95-6.47-8.13-12.8-12.24-19.21,5.37-1.47,7.11-.81,9.91,3.67l7.65,12.19c2.8-4.32,5.78-8.33,8.09-12.71,1.69-3.19,4-4,7.14-3.57.69.09,1.39.12,2.58.22-3.71,5.62-7,11.14-10.84,16.23-2.79,3.69-4.31,7.42-3.77,12a61.3,61.3,0,0,1,.05,7.06Z" transform="translate(-16.98 -33.47)"/><path d="M418.66,195.83c-1.59-.06-2.16-.87-2.61-2.14a45,45,0,0,0-9.27-15.56c1-1.68,2-3.19,2.86-4.72,9.24-15.71,7.28-35.28-4.88-48a51.3,51.3,0,0,0-17.58-12.07,3,3,0,0,1-2.11-3.13,41.67,41.67,0,0,0-7.22-21.85c-9.09-13.27-22.12-21-36.9-26.37a15,15,0,0,1-5.3-3.28c-16.1-15.83-35.57-23.81-57.91-25.25a10,10,0,0,0-2.95.75,11.4,11.4,0,0,0,1.42,2.86c6,6.53,8.25,14.18,6.35,22.79-1.39,6.32-4.79,11.1-11.62,12.67-2.53.57-4.94,1.53-7.4,2.31-8.67,2.8-17,6.17-23.54,12.86a6.93,6.93,0,0,1-3.34,1.47C225.58,91.75,215.86,96.66,208,105a4.77,4.77,0,0,1-2.4,1.48A50.66,50.66,0,0,0,181,117.66c-13.79,11.26-19.51,25.83-16.83,43.53a45.87,45.87,0,0,0,7.13,17.72c-2.91,5.39-5.53,10.33-8.24,15.2a2.24,2.24,0,0,1-1.24,1.09c-2.46.63-2.49,2.14-1.65,4.09,3.07,7.13,6.29,14.21,9.15,21.43,12.4,31.51,24.92,63,36.84,94.63,2.68,7.07,6.89,11.29,13.75,13.21a174.86,174.86,0,0,0,18.76,4.55A312.37,312.37,0,0,0,341.4,333c7.8-1.32,15.41-3.91,23-6.29a12.35,12.35,0,0,0,8-8.07c2.56-7.34,5.09-14.72,8-21.91q19.81-48.94,39.88-97.79C421.07,197,420.68,195.92,418.66,195.83Zm-74.52-122c-.45-1.32-.93-2.62-1.62-4.51,8.66,4.39,16.58,8.85,22.72,15.74,3.28,3.7,5.93,7.94,8.85,12,.15.33.3.66.42,1,6.59,12.13,3.28,26-8.28,34-8,5.51-17,8.67-26.27,11.11-19.39,5.11-39.22,6.95-59.15,8-4.66.28-9.36.46-14,.67,7.67-3.13,15.38-5.93,22.78-9.33,13.94-6.42,27.27-13.85,38.74-24.2,9-8.13,15.65-17.58,17.4-29.92A30.21,30.21,0,0,0,344.14,73.87ZM319.4,88.53a4.73,4.73,0,0,0,4.09-.48c2.38-1.72,5-3.25,5.57-6.8.78-4.67,1.66-9.18-.39-13.67-3-6.65-6.83-12.76-13.21-16.85a4.29,4.29,0,0,1-1.78-2.14,16.74,16.74,0,0,1,3.37,2.08c4.22,4.09,9.24,7.76,12.19,12.67,2.8,4.63,4.55,10.41,2.62,16.37-1.68,5.21-4.66,9.36-8.43,13.36a60.48,60.48,0,0,1-18.21,13.43,87.74,87.74,0,0,1-25.7,7.16,12.92,12.92,0,0,1-1.72-.12c12.92-8,22-18.18,24.83-33S302,52.8,291.14,42.15c14,4.45,31,18.39,33.56,32.26-1.48,1.45-2.89,2.38-3.61,3.67a27.35,27.35,0,0,0-2.86,6.9C318,86.06,318.59,88.14,319.4,88.53ZM244.09,95.3c3.34-5.9,9.06-8.73,15-11.14,8.85-3.58,17.79-6.89,26.58-10.59,2-.84,3.61-2.68,5.39-4.06-.12-.24-.21-.52-.33-.76l-2-.24c.69-5.9,1.35-11.77,2.05-17.66a1.5,1.5,0,0,1,.48.66c1.32,5.17,2.92,10.29,3.82,15.56,1.63,9.57-.24,18.6-6.32,26.3-8.55,10.84-19.78,17-33.77,17.64a16,16,0,0,1-4-.39C242.77,108.91,239.94,102.59,244.09,95.3ZM207,120.4c5.69-11.58,15.29-19,27.36-23.77a6.42,6.42,0,0,1,.06,1.23c-2.2,9.36,3.4,16.13,10.84,20,6.08,3.17,12.67,4.37,19.41,4.64,16.83.66,32.72-2.77,47.41-11.14a54.13,54.13,0,0,0,18.54-17.51c3.79-5.72,5-12,4.9-18.91a18.26,18.26,0,0,1,1,2.38,28.86,28.86,0,0,1-2.65,21.79c-4,7.38-9.82,13.19-16.47,18.12C297.64,131.9,275.4,141,251.77,146.86a2.2,2.2,0,0,1-.63-.12c-.06-2.41-.49-4.73-3.62-4.82-3-.12-6,3.16-6.38,6.87-6.86,1.38-13.75,2-20.67.24C206.44,145.48,200.54,133.44,207,120.4Zm-32.9,19c5-10.9,14.51-19.84,26.79-25.08-1,2.71-2,5.21-2.68,7.8-4.21,15.35,2.23,28,17.13,33.71,8.13,3.13,16.7,3.94,25.25,4.39,30.79,1.6,61.31-1,91.56-6.86a115,115,0,0,0,29.77-9.6c10.53-5.27,19.38-12.19,22.66-24.44,4.76,2.47,5.39,4,4.16,10.47-.82,4.31-3.4,7.83-6.44,11-7,7.19-15.38,12.22-24.26,16.52-25.2,12.16-51.74,20.23-79.1,25.68-20,4-40,7.19-60.35,7.76a74.2,74.2,0,0,1-21.79-2.37A35.24,35.24,0,0,1,174.05,139.37Zm38.38,175.41c-11.68-32.75-23.75-65.31-35.7-97.94-.48-1.33-1-2.62-1.32-3.55,3.07-.91,5.84-1.69,8.31-2.41Q202.55,266,221.7,322C217.06,321,214.12,319.51,212.43,314.78Zm13.12,8.52a2.79,2.79,0,0,1-1.32-1.75c-8.22-35.45-18.42-70.34-29.47-105,0-.09,0-.18.06-.6,4.4,3,8.85,5,13.31.93,10,36.3,20,72.57,30.06,109.41C233.83,325.28,229.68,324.38,225.55,323.3Zm15.89,3.37c-.57-.09-1.17-1.36-1.32-2.14-3.55-18.15-6.8-36.39-10.59-54.48-3.44-16.34-7.41-32.56-11.14-48.85-.09-.33-.09-.69-.21-1.56,6,4.21,11,2.59,15.41-1.18,7,36.54,14,73.14,21.13,110.1C250.23,328,245.81,327.42,241.44,326.67Zm16.08,2.23c-4.52-35.49-9-70.56-13.43-105.5,5.42,3.25,10.75,2.68,15.11-2.11,4.1,36,8.22,72.06,12.37,108.54C266.79,329.53,261.94,329.2,257.52,328.9Zm29.55,1.35h-13c-1.41-36-2.53-71.63-6.08-106.49,2.83.93,6,2.5,9.21,2.89,3.58.45,6.35-1.93,8.43-4.09q1.53,53.35,3.07,107.6C288.31,330.19,287.71,330.25,287.07,330.25ZM269.14,196.37c-1.12-.21-2.23-.45-3.35-.69,18.64-2.32,36.27-8,53.88-13.94a303.32,303.32,0,0,0,47.53-20.28,83.81,83.81,0,0,0,20.73-15.17c4.88-5.06,8.46-10.84,9.3-18,6.2,3.16,11.62,16.22,10.78,26.49-.45-1.45-.75-2.56-1.11-3.62-.58-1.62-1.42-3.28-3.37-2.64a5.26,5.26,0,0,0-3,2.76,26.46,26.46,0,0,0-1.15,6.6c-.15,1.89.42,3.61,2.44,4.3s3.25-.39,4.3-1.9a2.64,2.64,0,0,1,1-.93A32.23,32.23,0,0,1,400,175c-6.05,7.5-14.17,11.89-23.08,15-15.23,5.33-31,7.71-47.05,8.91A257.52,257.52,0,0,1,269.14,196.37ZM291.32,330c1.29-35.55,3.55-71.12,3-106.85,8.06,5.12,9.09,5.12,17.18.15q-2.88,52.74-5.77,106.7Zm16.91,0c4.58-36.27,9.24-72.15,11.95-107.72,2.38,1.05,5.15,2.68,8.13,3.46,3.25.84,6.05-.84,8.91-3.43-6.47,35.57-10.54,70.91-14.33,106.61C317.74,329.26,313,329.62,308.23,330Zm31.85-4.76a2,2,0,0,1-1.18,1.45c-4.45.75-9,1.35-13.75,2.08C332,291.84,340.29,255.7,345.89,219c7.79,5.29,12.1,4.9,17.94-2.08-1,3.28-1.9,6-2.53,8.73-5.63,24.83-11.29,49.66-16.74,74.55C342.76,308.43,341.61,316.86,340.08,325.22Zm11.59-1.08c-3.13.57-6.2,1.35-9.61,2.14C351.7,289.11,363.16,253,371.89,216c5.21,3.64,10.3,2.55,15.08-2-3.28,10.2-6.8,20.11-9.69,30.19q-10.78,37.6-21,75.34C355.55,322.3,354.37,323.66,351.67,324.14ZM394.1,241.4c-8.93,24.29-17.69,48.67-26.45,73-1.84,5.09-4.1,7.16-9.39,7.46,12.34-37.11,26.51-73.44,38-110.37l8.91,2.08C401.63,222.53,397.63,231.86,394.1,241.4Z" transform="translate(-16.98 -33.47)"/><circle cx="295.98" cy="102.08" r="4.73"/><circle cx="344.6" cy="79.06" r="4.73"/><circle cx="308.17" cy="157.25" r="4.73"/><circle cx="245.58" cy="138.17" r="4.73"/><circle cx="339.87" cy="55.82" r="4.73"/><circle cx="360.89" cy="144.78" r="4.73"/><circle cx="201.2" cy="147.62" r="4.73"/><circle cx="305.75" cy="128.71" r="4.73"/><circle cx="181.58" cy="123.99" r="4.73"/><circle cx="292.46" cy="54.25" r="4.73"/><circle cx="205.91" cy="91.42" r="4.73"/><circle cx="249.81" cy="60.55" r="4.73"/></svg>